Coordinates
version=1
nRows=30
nColumns=33
inDegrees=yes

Units are S.I. units (second, meters, Newtons, ...)
Angles are in degrees.

endheader
time	ground_thorax_rot_x	ground_thorax_rot_y	ground_thorax_rot_z	ground_thorax_tx	ground_thorax_ty	ground_thorax_tz	clav_prot_r	clav_elev_r	scapula_abduction_r	scapula_elevation_r	scapula_upward_rot_r	scapula_winging_r	shoulder_elv_r	plane_of_elev_r	axial_rot_r	elbow_flexion_r	pro_sup_r	wrist_flex_r	wrist_dev_r	clav_prot_l	clav_elev_l	scapula_abduction_l	scapula_elevation_l	scapula_upward_rot_l	scapula_winging_l	shoulder_elv_l	plane_of_elev_l	axial_rot_l	elbow_flexion_l	pro_sup_l	wrist_flex_l	wrist_dev_l	
5.8900	-39.102252	-8.098252	15.315032	-200.836677	833.855424	1.747516	-2.195838	-45.000000	42.608470	-45.000000	12.215714	-3349.875790	-2089.682968	23.745883	-180.000000	2523.523925	229.779549	20.211617	12.574088	16.415344	39.131625	-40.500878	-45.000000	-41.372573	1884.609924	-3526.775681	26.041163	-26.168223	731.245210	-346.075551	4.995714	-20.185009	
5.9000	-39.097673	-8.074818	15.297830	-202.370651	834.684652	1.772512	-2.143039	-45.000000	42.465900	-45.000000	11.856744	-3349.809869	-2089.559506	23.769177	-180.000000	2523.483851	229.747303	20.280479	12.542396	16.357229	39.087053	-40.440398	-45.000000	-41.480447	1884.705145	-3526.712401	25.997593	-26.349376	731.261642	-346.306155	4.934552	-20.187806	
5.9100	-39.093218	-8.055593	15.283916	-203.868769	835.470772	1.802425	-2.092954	-45.000000	42.328236	-45.000000	11.502614	-3349.747939	-2089.439011	23.789815	-180.000000	2523.447459	229.734268	20.348401	12.505656	16.300548	39.045399	-40.383574	-45.000000	-41.594040	1884.793916	-3526.653543	25.952853	-26.525724	731.268590	-346.496715	4.872103	-20.188307	
5.9200	-39.087347	-8.044196	15.277829	-205.332659	836.215048	1.836545	-2.039097	-45.000000	42.193343	-45.000000	11.149477	-3349.692029	-2089.321206	23.812107	-180.000000	2523.416332	229.739215	20.415135	12.466090	16.249612	38.994945	-40.326883	-45.000000	-41.730809	1884.879687	-3526.595785	25.917579	-26.689458	731.271886	-346.654070	4.804122	-20.185555	
5.9300	-39.079800	-8.048242	15.284947	-206.764158	836.919002	1.874110	-1.979625	-45.000000	42.059188	-45.000000	10.795014	-3349.642400	-2089.205430	23.837539	-180.000000	2523.397082	229.763068	20.478865	12.425604	16.208811	38.930002	-40.267397	-45.000000	-41.904014	1884.968175	-3526.538759	25.898870	-26.837975	731.273358	-346.780671	4.729372	-20.179180	
5.9400	-39.072646	-8.053657	15.295144	-208.165056	837.584271	1.914399	-1.919575	-45.000000	41.926127	-45.000000	10.439278	-3349.597893	-2089.093049	23.862539	-180.000000	2523.379121	229.803333	20.542916	12.382836	16.170340	38.859868	-40.206806	-45.000000	-42.081931	1885.051769	-3526.485405	25.885002	-26.977941	731.274255	-346.876602	4.653678	-20.171499	
5.9500	-39.064115	-8.072376	15.316871	-209.537318	838.212705	1.956812	-1.850482	-45.000000	41.793931	-45.000000	10.074715	-3349.558880	-2088.984085	23.891602	-180.000000	2523.371286	229.862649	20.605454	12.341030	16.143609	38.768864	-40.145607	-45.000000	-42.299976	1885.140270	-3526.433459	25.890741	-27.100377	731.272894	-346.946396	4.567404	-20.158760	
5.9600	-39.059952	-8.080282	15.328583	-210.882664	838.806255	2.000914	-1.786815	-45.000000	41.666489	-45.000000	9.704760	-3349.520795	-2088.880881	23.915043	-180.000000	2523.353148	229.937987	20.671789	12.295073	16.111480	38.685027	-40.089137	-45.000000	-42.495416	1885.219157	-3526.384771	25.885225	-27.219308	731.274423	-346.985376	4.485775	-20.147739	
5.9700	-39.059023	-8.084477	15.335414	-212.202670	839.367109	2.046441	-1.724251	-45.000000	41.544785	-45.000000	9.330649	-3349.484813	-2088.783439	23.934307	-180.000000	2523.331907	230.029505	20.739656	12.247083	16.077545	38.603554	-40.036924	-45.000000	-42.683895	1885.293992	-3526.337525	25.874701	-27.338919	731.276637	-346.997510	4.405230	-20.136445	
5.9800	-39.066803	-8.061101	15.315350	-213.498483	839.897717	2.093270	-1.677776	-45.000000	41.430845	-45.000000	8.960586	-3349.446319	-2088.693278	23.941308	-180.000000	2523.291830	230.130734	20.812571	12.192809	16.024818	38.554879	-39.988935	-45.000000	-42.791939	1885.346850	-3526.294646	25.827849	-27.479087	731.278280	-346.981439	4.342677	-20.130402	
5.9900	-39.072007	-8.050931	15.305765	-214.770930	840.400930	2.141370	-1.620964	-45.000000	41.319595	-45.000000	8.575858	-3349.410193	-2088.605152	23.952131	-180.000000	2523.259608	230.245934	20.883059	12.140498	15.983237	38.488895	-39.945381	-45.000000	-42.951003	1885.400328	-3526.247598	25.796676	-27.593612	731.270507	-346.955062	4.273178	-20.118109	
6.0000	-39.079223	-8.044790	15.295683	-216.019940	840.879830	2.190712	-1.572047	-45.000000	41.210878	-45.000000	8.202889	-3349.377066	-2088.518267	23.958473	-180.000000	2523.231063	230.367414	20.949557	12.087289	15.937516	38.439054	-39.898271	-45.000000	-43.095818	1885.450842	-3526.201988	25.755601	-27.721997	731.270361	-346.916491	4.216428	-20.110466	
6.0100	-39.081630	-8.064892	15.308512	-217.244787	841.337685	2.241206	-1.519691	-45.000000	41.102520	-45.000000	7.843114	-3349.351964	-2088.426810	23.968845	-180.000000	2523.227203	230.492669	21.005645	12.039145	15.903894	38.383782	-39.846183	-45.000000	-43.287849	1885.513730	-3526.156777	25.732982	-27.855080	731.271927	-346.874763	4.158463	-20.100909	
6.0200	-39.086689	-8.083901	15.318811	-218.444028	841.777743	2.292637	-1.481738	-45.000000	40.996646	-45.000000	7.517574	-3349.332603	-2088.333584	23.973728	-180.000000	2523.233976	230.608162	21.054353	11.992912	15.862208	38.358563	-39.784826	-45.000000	-43.430813	1885.574169	-3526.116835	25.693942	-28.030616	731.282699	-346.828101	4.117005	-20.097930	
6.0300	-39.085467	-8.126488	15.350626	-219.616054	842.203023	2.344667	-1.432925	-45.000000	40.891434	-45.000000	7.199218	-3349.320403	-2088.237598	23.987873	-180.000000	2523.266745	230.712412	21.094109	11.956950	15.839285	38.309399	-39.723424	-45.000000	-43.638123	1885.648360	-3526.078120	25.684363	-28.189160	731.286209	-346.793842	4.062545	-20.087234	
6.0400	-39.088658	-8.159559	15.370061	-220.758901	842.615904	2.396844	-1.396494	-45.000000	40.791690	-45.000000	6.910727	-3349.310995	-2088.147141	23.995872	-180.000000	2523.305409	230.791719	21.129836	11.926093	15.808147	38.278394	-39.658555	-45.000000	-43.796571	1885.720356	-3526.043859	25.659901	-28.372103	731.298555	-346.767959	4.021804	-20.082302	
6.0500	-39.090431	-8.189397	15.385611	-221.871080	843.018023	2.448691	-1.356692	-45.000000	40.695754	-45.000000	6.630073	-3349.304259	-2088.061556	24.007502	-180.000000	2523.350303	230.841638	21.163444	11.903931	15.783614	38.232553	-39.598473	-45.000000	-43.967853	1885.791676	-3526.012784	25.645403	-28.535819	731.302163	-346.761984	3.976919	-20.072291	
6.0600	-39.099246	-8.188254	15.371967	-222.951313	843.410006	2.499753	-1.333659	-45.000000	40.607499	-45.000000	6.372438	-3349.296370	-2087.985001	24.007458	-180.000000	2523.382542	230.851997	21.198526	11.883288	15.741404	38.214485	-39.539918	-45.000000	-44.058305	1885.843167	-3525.981661	25.599260	-28.713606	731.312224	-346.769514	3.955016	-20.070274	
6.0700	-39.107195	-8.174917	15.346145	-223.999133	843.791593	2.549660	-1.304360	-45.000000	40.523409	-45.000000	6.112021	-3349.288120	-2087.917755	24.009848	-180.000000	2523.410598	230.825723	21.235473	11.869114	15.703325	38.181010	-39.488641	-45.000000	-44.155884	1885.883716	-3525.949341	25.556742	-28.857970	731.311697	-346.798185	3.929273	-20.063081	
6.0800	-39.114907	-8.158599	15.318731	-225.014324	844.161590	2.598107	-1.281917	-45.000000	40.444944	-45.000000	5.873523	-3349.284198	-2087.853475	24.006351	-180.000000	2523.445064	230.758300	21.267551	11.858715	15.660064	38.160848	-39.439392	-45.000000	-44.237649	1885.920527	-3525.917809	25.504199	-29.015115	731.318825	-346.837874	3.913075	-20.059904	
6.0900	-39.118091	-8.141792	15.293300	-225.997107	844.518199	2.644830	-1.257657	-45.000000	40.366364	-45.000000	5.646170	-3349.284168	-2087.791246	24.006239	-180.000000	2523.485324	230.650001	21.295851	11.852683	15.618961	38.139295	-39.390301	-45.000000	-44.321443	1885.951549	-3525.889220	25.453977	-29.168409	731.319492	-346.885369	3.896889	-20.054635	
6.1000	-39.116462	-8.136450	15.281676	-226.947669	844.859168	2.689542	-1.233883	-45.000000	40.288475	-45.000000	5.434200	-3349.289571	-2087.727748	24.007427	-180.000000	2523.542324	230.499833	21.315579	11.851072	15.582316	38.118105	-39.339007	-45.000000	-44.421524	1885.988234	-3525.862323	25.411968	-29.328512	731.324554	-346.933537	3.879720	-20.050012	
6.1100	-39.112801	-8.127740	15.267941	-227.866040	845.182042	2.731902	-1.211199	-45.000000	40.211532	-45.000000	5.232253	-3349.296817	-2087.668762	24.010024	-180.000000	2523.603273	230.311137	21.331361	11.851312	15.545112	38.098423	-39.284236	-45.000000	-44.506571	1886.020799	-3525.837444	25.369544	-29.494497	731.328683	-346.972364	3.863347	-20.046493	
6.1200	-39.104070	-8.139459	15.270455	-228.752105	845.484353	2.771507	-1.181560	-45.000000	40.137211	-45.000000	5.035145	-3349.307160	-2087.614022	24.018306	-180.000000	2523.684906	230.088734	21.339012	11.857388	15.520507	38.059072	-39.229578	-45.000000	-44.635810	1886.070905	-3525.816284	25.348591	-29.657265	731.337206	-346.999014	3.829574	-20.039774	
6.1300	-39.093842	-8.138334	15.262136	-229.605524	845.763712	2.807923	-1.154395	-45.000000	40.065324	-45.000000	4.841825	-3349.317077	-2087.567963	24.026207	-180.000000	2523.757069	229.836844	21.346391	11.860878	15.491167	38.020446	-39.173878	-45.000000	-44.736029	1886.110537	-3525.796726	25.321436	-29.821081	731.344279	-347.000912	3.798144	-20.035863	
6.1400	-39.081518	-8.139669	15.252228	-230.426174	846.017958	2.840728	-1.125331	-45.000000	39.999202	-45.000000	4.651400	-3349.326532	-2087.532151	24.034434	-180.000000	2523.831808	229.562435	21.351402	11.863918	15.464415	37.974034	-39.119470	-45.000000	-44.835360	1886.154322	-3525.780956	25.296743	-29.989724	731.355176	-346.974588	3.755742	-20.031589	
6.1500	-39.074527	-8.109088	15.213549	-231.214151	846.245224	2.869571	-1.106836	-45.000000	39.940613	-45.000000	4.467884	-3349.333452	-2087.507499	24.032936	-180.000000	2523.883009	229.272871	21.361052	11.856578	15.419365	37.953490	-39.063970	-45.000000	-44.847372	1886.170890	-3525.764174	25.238062	-30.183456	731.367763	-346.909250	3.726333	-20.034740	
6.1600	-39.063820	-8.088918	15.179778	-231.970044	846.444122	2.894209	-1.083035	-45.000000	39.884480	-45.000000	4.283555	-3349.341090	-2087.490035	24.034385	-180.000000	2523.938783	228.976987	21.370131	11.846165	15.380860	37.923770	-39.010272	-45.000000	-44.871309	1886.191959	-3525.754968	25.185194	-30.378709	731.381261	-346.812682	3.679406	-20.034013	
6.1700	-39.051763	-8.057715	15.140358	-232.694535	846.613831	2.914526	-1.062637	-45.000000	39.829398	-45.000000	4.100144	-3349.350551	-2087.473569	24.032917	-180.000000	2523.980280	228.679164	21.382541	11.825060	15.334989	37.906598	-38.956537	-45.000000	-44.864228	1886.194710	-3525.746821	25.120455	-30.580304	731.391623	-346.680905	3.638853	-20.036010	
6.1800	-39.035282	-8.038367	15.104624	-233.388295	846.754238	2.930537	-1.037723	-45.000000	39.773018	-45.000000	3.914508	-3349.359332	-2087.463439	24.036285	-180.000000	2524.023006	228.384736	21.396928	11.798500	15.296667	37.878884	-38.899679	-45.000000	-44.872632	1886.198985	-3525.746644	25.067192	-30.774462	731.397288	-346.520808	3.586808	-20.033601	
